# xmcd
#
# Track frame offsets: 
#        150
#        18340
#        39924
#        56759
#        84606
#        102226
#        125092
#        137501
#        153712
#        171700
#        195334
#        227913
#        249974
#        267742
#
# Disc length: 3780 seconds
#
# Revision: 0
# Processed by: cddbd v1.5.2PL0 Copyright (c) Steve Scherf et al.
# Submitted via: ExactAudioCopy v0.99pb3
#
DISCID=c40ec20e
DTITLE=Rebecca Ungerman - I Just Want
DYEAR=2004
DGENRE=Vocal
TTITLE0=I Just Want
TTITLE1=Glory of Love
TTITLE2=Can't Stop Singing' the Blues
TTITLE3=New York State of Mind
TTITLE4=How Many Ways
TTITLE5=Levon
TTITLE6=Let's Make a Home
TTITLE7=It's Too Late
TTITLE8=Get Me to the Road
TTITLE9=Fixin' a Hole
TTITLE10=God Bless the Child
TTITLE11=Water After Midnight
TTITLE12=Runaway
TTITLE13=Stand Up
EXTD=
EXTT0=
EXTT1=
EXTT2=
EXTT3=
EXTT4=
EXTT5=
EXTT6=
EXTT7=
EXTT8=
EXTT9=
EXTT10=
EXTT11=
EXTT12=
EXTT13=
PLAYORDER=
